<svg
    xmlns="http://www.w3.org/2000/svg"
    viewBox="0 0 22 23"
    id="vector">
    <path
        id="path"
        d="M 11.064 16.816 Q 8.906 16.816 7.7 15.334 Q 6.493 13.846 6.493 11.689 Q 6.493 9.438 7.757 7.971 Q 9.021 6.504 11.105 6.504 Q 13.181 6.504 14.437 7.949 Q 15.692 9.387 15.692 11.58 Q 15.692 13.686 14.47 15.254 Q 13.255 16.816 11.064 16.816 Z M 11.097 15.806 Q 12.566 15.806 13.395 14.623 Q 14.223 13.439 14.223 11.573 Q 14.223 9.656 13.362 8.588 Q 12.508 7.521 11.089 7.521 Q 9.653 7.521 8.807 8.675 Q 7.962 9.83 7.962 11.696 Q 7.962 13.519 8.816 14.666 Q 9.669 15.806 11.097 15.806 Z"
        fill="#000000"
        stroke="#00000000"/>
    <path
        id="path_1"
        d="M 7.851 16.519 C 6.569 16.124 5.711 14.214 6.497 13.507 C 7.502 12.911 7.712 12.924 10.45 12.062 C 10.784 11.957 11.071 11.877 11.091 11.898 C 11.112 11.918 10.977 12.248 10.792 12.631 C 10.228 13.845 10.263 14.081 9.062 16.224 C 8.656 16.622 8.314 16.643 7.851 16.519 Z"
        fill="#5b9bd5"
        fill-opacity="0.87"
        stroke-opacity="0.87"/>
    <path
        id="path_2"
        d="M 14.493 16.533 C 15.775 16.138 16.633 14.228 15.847 13.521 C 14.842 12.924 14.632 12.938 11.894 12.076 C 11.56 11.971 11.273 11.891 11.252 11.911 C 11.232 11.932 11.367 12.262 11.552 12.645 C 12.116 13.858 12.081 14.095 13.282 16.238 C 13.688 16.636 14.03 16.657 14.493 16.533 Z"
        fill="#5b9bd5"
        fill-opacity="0.87"
        stroke-opacity="0.87"/>
    <path
        id="path_3"
        d="M 7.851 7.084 C 6.569 7.479 5.711 9.388 6.498 10.096 C 7.502 10.692 7.712 10.679 10.45 11.541 C 10.784 11.646 11.071 11.726 11.092 11.705 C 11.112 11.685 10.978 11.355 10.792 10.972 C 10.228 9.758 10.263 9.522 9.062 7.379 C 8.656 6.981 8.314 6.96 7.851 7.084 Z"
        fill="#5b9bd5"
        fill-opacity="0.87"
        stroke-opacity="0.87"/>
    <path
        id="path_4"
        d="M 14.493 7.07 C 15.775 7.465 16.633 9.374 15.847 10.082 C 14.842 10.678 14.632 10.665 11.894 11.527 C 11.56 11.632 11.273 11.712 11.252 11.691 C 11.232 11.671 11.367 11.341 11.552 10.958 C 12.116 9.744 12.081 9.508 13.282 7.365 C 13.688 6.967 14.03 6.946 14.493 7.07 Z"
        fill="#5b9bd5"
        fill-opacity="0.87"
        stroke-opacity="0.87"/>
</svg>
